<svg xmlns="http://www.w3.org/2000/svg" version="1.0" width="1200.000000pt" height="1700.000000pt" viewBox="0 0 1200.000000 1700.000000" preserveAspectRatio="xMidYMid meet">
<g transform="translate(0.000000,1700.000000) scale(0.100000,-0.100000)" fill="#000000" stroke="none">
<path d="M3645 16367 c-76 -31 -191 -105 -277 -178 -31 -27 -61 -49 -68 -49 -6 0 -100 24 -208 54 -236 65 -342 86 -431 86 -237 -1 -544 -168 -634 -346 -32 -63 -57 -183 -57 -271 0 -37 9 -111 20 -163 27 -127 37 -184 44 -253 l6 -58 -57 -26 c-260 -117 -325 -153 -381 -210 -109 -111 -163 -266 -163 -468 0 -207 53 -359 161 -458 93 -87 214 -122 391 -115 l88 3 -67 -59 c-133 -116 -449 -444 -548 -567 -229 -285 -367 -533 -498 -894 -257 -712 -348 -1445 -276 -2215 45 -473 27 -866 -65 -1400 -14 -80 -59 -278 -100 -440 -41 -162 -85 -351 -99 -420 -85 -424 -108 -1164 -51 -1660 97 -836 356 -1382 889 -1868 423 -387 873 -596 1671 -776 580 -131 1727 -265 2278 -266 182 -1 299 -13 333 -35 23 -15 36 -70 49 -215 7 -75 -10 -279 -28 -342 l-13 -43 -169 0 c-209 -1 -819 -22 -1011 -35 -396 -27 -637 -174 -780 -475 -105 -222 -77 -362 81 -395 94 -20 151 -7 304 65 185 87 373 135 528 135 l65 0 -61 -45 c-134 -102 -239 -278 -262 -441 -20 -144 22 -266 127 -364 178 -166 356 -154 550 38 43 43 123 135 177 205 55 70 100 127 102 127 1 0 -6 -30 -17 -68 -23 -82 -28 -261 -9 -342 49 -203 177 -312 350 -297 150 13 216 66 310 248 30 57 77 138 104 179 47 69 208 286 250 334 18 20 18 13 12 -219 -11 -430 26 -649 130 -763 50 -56 106 -76 192 -70 158 13 270 94 348 252 82 164 115 348 115 631 l0 170 108 -106 c272 -269 513 -431 726 -490 105 -28 252 -24 339 11 128 51 183 134 175 262 -8 127 -96 291 -266 498 -39 47 -69 86 -68 88 2 1 113 -34 248 -77 322 -104 419 -126 573 -126 149 0 219 19 281 79 70 68 86 160 64 359 -12 105 -25 134 -83 181 -100 82 -314 162 -682 256 -379 97 -648 142 -948 160 -195 12 -277 25 -277 44 0 7 -8 23 -19 35 -17 19 -19 47 -26 304 -7 270 -2 337 22 337 5 0 130 2 278 5 362 5 661 37 995 106 1211 251 2268 967 2793 1894 243 431 364 953 328 1418 -29 372 -122 777 -248 1077 -48 112 -47 152 6 298 82 226 92 282 100 527 5 135 12 228 19 241 6 12 40 47 75 78 48 42 74 75 102 130 34 68 37 79 36 157 -2 204 -48 403 -149 639 -68 160 -73 185 -82 415 -8 216 -21 290 -71 425 -53 143 -184 351 -300 478 -101 109 -131 183 -178 431 -33 174 -105 328 -173 372 -68 42 -241 8 -562 -111 -243 -91 -536 -251 -787 -430 -155 -111 -208 -159 -361 -326 -158 -173 -262 -263 -353 -305 -116 -55 -499 -96 -785 -86 -333 13 -575 69 -821 193 -174 87 -313 212 -470 423 -141 190 -200 300 -531 981 -109 225 -188 370 -539 997 -87 155 -164 302 -170 327 -17 67 2 155 73 336 94 241 93 236 93 405 -1 138 -3 156 -29 230 -39 113 -80 180 -156 257 -59 59 -85 75 -231 146 -90 44 -196 90 -236 101 -70 21 -72 22 -113 87 -22 36 -89 158 -147 272 -58 114 -131 245 -161 292 -102 156 -348 377 -511 458 -62 31 -87 37 -145 39 -39 1 -84 -3 -101 -10z m892 -2371 c265 -128 514 -348 702 -621 137 -199 229 -376 396 -760 234 -538 514 -988 921 -1476 154 -185 466 -500 662 -668 79 -68 147 -134 152 -146 23 -62 -56 -167 -206 -274 -158 -112 -297 -170 -500 -206 -95 -17 -154 -44 -154 -70 0 -8 32 -50 71 -92 92 -100 181 -236 221 -338 43 -111 51 -242 19 -308 -64 -133 -337 -347 -611 -480 -58 -28 -163 -72 -235 -98 -71 -27 -129 -52 -128 -56 2 -4 21 -60 43 -124 89 -256 58 -431 -103 -592 -52 -51 -90 -77 -160 -111 -187 -91 -337 -111 -739 -101 -172 4 -288 3 -288 -2 0 -5 7 -56 16 -114 22 -142 15 -392 -14 -501 -37 -137 -97 -223 -178 -254 -62 -24 -231 -15 -389 21 -395 89 -772 280 -875 442 l-27 43 -39 -63 c-72 -117 -233 -261 -369 -330 -141 -71 -326 -93 -443 -53 -29 10 -56 16 -59 12 -3 -3 6 -25 21 -50 20 -34 40 -51 83 -73 53 -25 67 -28 158 -27 116 2 230 32 353 92 99 48 207 150 217 205 4 20 10 39 14 41 3 2 51 -23 106 -56 180 -107 400 -207 615 -277 202 -66 559 -141 674 -141 40 0 48 4 92 53 84 91 205 327 238 461 20 82 38 268 30 311 l-5 30 228 1 c216 0 233 1 328 27 250 68 441 207 591 432 134 202 183 409 139 579 -9 33 -14 60 -13 60 2 1 57 22 123 45 247 89 421 196 591 366 183 181 221 259 211 428 -10 161 -60 304 -153 434 -25 35 -44 65 -42 67 1 1 50 14 108 28 251 61 407 178 510 383 69 137 85 241 54 346 -12 42 -29 67 -75 113 l-58 58 477 -7 c262 -4 713 -8 1002 -10 350 -2 545 -7 584 -15 134 -26 210 -73 364 -224 l114 -111 -25 57 c-71 160 -212 305 -367 377 -37 18 -127 44 -205 61 -240 52 -329 95 -355 174 -46 140 206 380 670 636 202 111 386 191 625 271 214 71 331 59 401 -42 51 -74 62 -149 49 -321 l-8 -97 48 -33 c202 -139 365 -346 465 -587 50 -121 63 -186 64 -303 l1 -107 -50 -51 c-27 -28 -63 -54 -78 -57 -15 -3 -26 -11 -24 -17 3 -6 60 -95 127 -196 194 -295 259 -453 247 -605 -15 -186 -107 -285 -280 -302 -85 -8 -89 -18 -53 -142 14 -49 26 -102 26 -118 0 -47 -82 -455 -90 -446 -4 4 -29 58 -56 118 -64 145 -90 191 -136 237 -36 36 -87 53 -75 26 103 -235 160 -404 286 -848 160 -562 197 -796 188 -1185 -10 -390 -71 -710 -193 -1010 -325 -793 -1007 -1367 -2064 -1737 -839 -294 -1911 -435 -3045 -399 -1023 32 -1939 89 -2430 152 -1001 127 -1660 404 -2166 909 -444 444 -687 970 -786 1708 -24 180 -24 731 0 917 17 126 63 403 73 436 4 14 11 15 45 8 25 -6 81 -5 151 2 172 17 194 7 238 -106 30 -76 92 -202 138 -280 88 -149 261 -350 381 -444 56 -45 52 -37 -100 180 -158 228 -221 330 -284 464 -74 156 -125 326 -125 418 0 58 -12 63 -64 23 -78 -59 -172 -99 -237 -100 -71 -1 -104 20 -139 90 -39 76 -34 224 13 454 20 96 41 209 47 250 25 155 71 368 136 617 64 250 67 262 71 408 4 121 0 191 -21 363 -122 992 39 2000 450 2825 150 303 282 504 424 648 105 106 148 130 230 127 33 -1 60 -2 61 -3 0 0 4 -57 8 -127 7 -113 11 -133 39 -190 77 -156 257 -316 428 -381 49 -18 79 -22 179 -21 110 0 127 3 205 32 261 99 489 300 559 492 11 30 22 67 25 82 8 34 27 47 229 153 l167 88 65 88 c70 97 85 107 207 144 126 38 199 32 325 -29z m2446 -10973 c-3 -82 -2 -200 1 -263 l8 -115 186 -2 c336 -2 701 -53 1081 -149 347 -88 468 -131 587 -205 116 -74 184 -175 184 -277 0 -62 -16 -98 -64 -139 -59 -52 -135 -75 -267 -81 -132 -5 -126 -6 -531 122 -340 108 -522 158 -653 181 -49 8 -49 8 80 -87 283 -210 489 -421 550 -564 22 -51 23 -121 2 -161 -21 -39 -85 -78 -155 -94 -136 -32 -364 54 -582 219 -105 80 -301 272 -372 366 -32 43 -72 105 -89 137 -16 33 -31 59 -34 59 -2 0 -10 -10 -17 -22 -9 -16 -15 -105 -19 -298 -7 -279 -14 -346 -59 -519 -37 -147 -109 -260 -191 -302 -141 -72 -242 63 -270 361 -14 146 -3 306 45 655 53 377 67 564 73 953 5 320 7 352 22 346 160 -71 321 -72 443 -1 24 14 44 25 44 26 1 1 -1 -65 -3 -146z m-623 -20 c-1 -286 -18 -611 -39 -728 -43 -236 -82 -314 -459 -925 -121 -195 -166 -250 -235 -290 -149 -85 -274 -22 -323 165 -67 250 110 646 381 853 l30 23 -28 -6 c-152 -32 -378 -185 -572 -386 -144 -149 -216 -239 -275 -344 -30 -53 -68 -108 -83 -121 -111 -93 -306 -3 -363 168 -24 72 -15 202 19 284 53 131 180 273 361 404 l89 65 -44 13 c-26 8 -89 14 -154 14 -130 1 -213 -17 -455 -97 -209 -69 -272 -84 -368 -92 -168 -12 -223 67 -148 215 94 186 297 314 581 368 163 31 675 15 960 -31 265 -42 384 -39 437 12 55 53 70 116 78 343 5 113 8 205 9 205 320 0 412 4 491 23 47 10 91 20 98 21 9 1 12 -36 12 -156z"/>
<path d="M1805 12491 c-53 -24 -119 -100 -139 -158 -20 -59 -20 -153 0 -201 18 -43 57 -88 95 -108 165 -86 361 24 376 209 10 115 -35 195 -138 246 -73 36 -133 40 -194 12z m6 -110 c50 -40 17 -131 -46 -131 -28 0 -65 43 -65 77 0 29 41 73 68 73 11 0 30 -8 43 -19z"/>
<path d="M3515 12489 c-52 -12 -109 -59 -138 -112 -19 -37 -22 -57 -22 -163 0 -137 5 -148 78 -186 132 -67 332 -25 404 84 24 35 28 52 28 107 -1 77 -17 113 -77 173 -43 43 -141 93 -198 101 -19 3 -53 1 -75 -4z m40 -101 c32 -38 29 -81 -11 -115 -78 -70 -184 48 -109 122 36 37 86 34 120 -7z"/>
<path d="M2400 11743 c-240 -40 -504 -253 -582 -469 -67 -188 -6 -390 156 -516 l54 -41 -39 -49 c-50 -64 -94 -157 -121 -255 -27 -104 -30 -306 -5 -407 38 -152 118 -267 224 -323 86 -46 147 -55 303 -47 126 6 139 5 177 -15 23 -11 63 -45 89 -76 61 -70 104 -99 201 -131 60 -21 99 -27 168 -28 194 -2 286 70 404 314 65 133 91 235 98 377 10 191 -33 368 -148 616 -92 198 -96 212 -113 357 -9 74 -22 158 -31 185 -61 202 -330 431 -581 495 -72 19 -186 24 -254 13z m185 -88 c189 -49 398 -211 476 -371 29 -58 31 -70 27 -137 -11 -168 -147 -306 -359 -363 -87 -23 -243 -23 -334 0 -142 37 -368 163 -414 231 -63 93 -59 203 10 344 48 98 152 210 235 254 106 56 243 72 359 42z"/>
<path d="M8840 10367 c3 -2 30 -15 60 -27 92 -38 215 -126 282 -201 170 -189 258 -420 258 -680 0 -201 -58 -422 -155 -589 -76 -132 -74 -158 23 -257 40 -41 65 -76 76 -109 66 -189 -5 -502 -209 -922 -182 -374 -371 -598 -687 -813 -142 -97 -268 -204 -268 -227 0 -14 124 -62 161 -62 49 0 91 25 206 124 424 363 711 809 882 1371 121 401 143 631 67 722 -70 84 -71 146 -6 318 58 151 73 246 68 425 -4 130 -8 155 -37 240 -72 216 -204 436 -330 551 -36 34 -97 76 -139 96 -65 33 -85 37 -165 41 -51 2 -90 2 -87 -1z"/>
</g>
</svg>